<?xml version="1.0" encoding="utf-8"?>
<!-- Generator: Adobe Illustrator 19.2.0, SVG Export Plug-In . SVG Version: 6.00 Build 0)  -->
<svg version="1.1" id="Capa_1" xmlns="http://www.w3.org/2000/svg" xmlns:xlink="http://www.w3.org/1999/xlink" x="0px" y="0px"
	 viewBox="0 0 205.9 93.6" style="enable-background:new 0 0 205.9 93.6;" xml:space="preserve">
<style type="text/css">
	.st0{fill:#A411A8;}
</style>
<g>
	<path d="M19.5,93.6H0V2.1h16.9L19.5,15c1.3-1.6,2.8-3.3,4.5-5.1c1.8-1.8,3.8-3.4,6.2-4.8c2.3-1.5,5-2.7,7.9-3.6
		C41,0.5,44.2,0,47.7,0c6.1,0,11,1.5,15,4.5c3.9,3,6.7,7.3,8.3,12.7c1.6-2.3,3.5-4.4,5.6-6.4c2.1-2,4.4-3.9,6.9-5.5
		c2.5-1.6,5.2-2.9,8.1-3.9c2.9-0.9,6-1.4,9.3-1.4c8.7,0,15.2,3,19.5,8.9c4.3,5.9,6.4,14,6.4,24.2v60.4h-19.5V34.3
		c0-5.2-0.8-9.2-2.5-12.2c-1.6-3-4.8-4.5-9.5-4.5c-4.9,0-9.3,1.3-13.1,3.9c-3.8,2.6-6.8,5.8-9.1,9.8v62.3H53.8V34.3
		c0-5.2-0.8-9.2-2.4-12.2c-1.6-3-4.7-4.5-9.4-4.5c-4.8,0-9.2,1.2-13.3,3.6c-4,2.4-7.1,5.5-9.3,9.3V93.6z"/>
	<path class="st0" d="M169.4,16.7c1.1-1.9,2.4-3.9,3.9-5.9c1.5-2,3.1-3.8,5-5.4c1.9-1.6,4.1-2.9,6.5-3.9c2.5-1,5.2-1.5,8.2-1.5
		c3.4,0,6.2,0.5,8.3,1.5c2.1,1,3.7,1.8,4.5,2.5L201,22.9c-2.9-2.5-6.8-3.8-11.6-3.8c-4.4,0-8.4,1-11.8,3.1c-3.5,2.1-6.2,5.2-8.2,9.4
		v61.9h-20.1V2.1h17L169.4,16.7z"/>
</g>
</svg>
