<?xml version="1.0" encoding="utf-8"?>
<!-- Generator: Adobe Illustrator 19.2.0, SVG Export Plug-In . SVG Version: 6.00 Build 0)  -->
<svg version="1.1" id="Capa_1" xmlns="http://www.w3.org/2000/svg" xmlns:xlink="http://www.w3.org/1999/xlink" x="0px" y="0px"
	 viewBox="0 0 841.1 168" style="enable-background:new 0 0 841.1 168;" xml:space="preserve">
<style type="text/css">
	.st0{fill:#A411A8;}
</style>
<g>
	<path d="M19.5,129.8H0V38.3h16.9l2.7,12.9c1.3-1.6,2.8-3.3,4.5-5.1c1.8-1.8,3.8-3.4,6.2-4.8c2.3-1.5,5-2.7,7.9-3.6
		c2.9-0.9,6.1-1.4,9.7-1.4c6.1,0,11,1.5,15,4.5c3.9,3,6.7,7.3,8.3,12.7c1.6-2.3,3.5-4.4,5.6-6.4c2.1-2,4.4-3.9,6.9-5.5
		c2.5-1.6,5.2-2.9,8.1-3.9c2.9-0.9,6-1.4,9.3-1.4c8.7,0,15.2,3,19.5,8.9c4.3,5.9,6.4,14,6.4,24.2v60.4h-19.5V70.5
		c0-5.2-0.8-9.2-2.5-12.2c-1.6-3-4.8-4.5-9.5-4.5c-4.9,0-9.3,1.3-13.1,3.9c-3.8,2.6-6.8,5.8-9.1,9.8v62.3H53.8V70.5
		c0-5.2-0.8-9.2-2.4-12.2c-1.6-3-4.7-4.5-9.4-4.5c-4.8,0-9.2,1.2-13.3,3.6c-4,2.4-7.1,5.5-9.3,9.3V129.8z"/>
	<path d="M143.2,104.1c0-11,3.7-18.9,11-23.9c7.3-5,17.3-7.5,29.9-7.5h15.9v-3.1c0-6.1-1.6-10.6-4.9-13.5c-3.3-2.9-7.9-4.3-13.8-4.3
		c-5.3,0-10.2,0.6-14.8,1.9c-4.5,1.3-8.8,3-12.9,5.1l-4.5-14c3.7-2.3,8.5-4.3,14.4-6.1c5.9-1.8,12.4-2.7,19.5-2.7
		c12.4,0,21.5,3,27.5,9.1c5.9,6.1,8.9,14.4,8.9,25v59.5h-16.5l-2.8-13.6c-1.3,2-2.7,4-4.3,5.9c-1.6,1.9-3.5,3.6-5.7,5
		c-2.2,1.5-4.8,2.6-7.9,3.5c-3,0.9-6.6,1.3-10.8,1.3c-3.9,0-7.6-0.6-11-1.8s-6.4-3-9-5.4c-2.6-2.4-4.6-5.3-6.1-8.8
		C143.9,112.4,143.2,108.5,143.2,104.1z M200.1,86.4h-16.1c-6.9,0-12.3,1.5-16,4.5c-3.7,3-5.6,7.2-5.6,12.6c0,4,1.2,7.2,3.7,9.6
		c2.5,2.4,5.6,3.6,9.4,3.6c3.7,0,7-0.7,10-2.1c3-1.4,5.6-3.2,7.8-5.5c2.1-2.3,3.8-4.9,5-7.8c1.2-2.9,1.8-5.9,1.8-8.9V86.4z"/>
	<path d="M302,114c-2.4,4-5.9,7.7-10.6,10.9c-4.7,3.2-10.3,4.8-16.9,4.8c-5.6,0-10.7-1.1-15.3-3.2c-4.7-2.1-8.7-5.2-12.1-9.2
		c-3.4-4-6.1-8.9-8.1-14.7c-2-5.8-2.9-12.4-2.9-19.7c0-6.2,0.9-12.1,2.6-17.8c1.7-5.7,4.2-10.7,7.5-15c3.3-4.3,7.3-7.7,12.1-10.2
		c4.8-2.5,10.4-3.8,16.7-3.8c3.4,0,6.5,0.4,9.3,1.3c2.8,0.9,5.3,2.1,7.5,3.5c2.2,1.5,4.2,3.1,5.9,4.8c1.7,1.8,3.1,3.5,4.3,5.3
		l2.7-12.9h17.4v83.9c0,8.3-1.1,15.4-3.3,21.2c-2.2,5.8-5.3,10.5-9.3,14.2c-4,3.7-8.7,6.3-14.1,8c-5.4,1.6-11.3,2.5-17.6,2.5
		c-6.9,0-13.5-0.9-19.8-2.7c-6.3-1.8-11.3-3.9-15.2-6.4l5.1-15.7c4,2.5,8.5,4.4,13.3,5.7c4.8,1.3,9.6,1.9,14.4,1.9
		c3.9,0,7.5-0.4,10.7-1.3c3.2-0.9,6-2.4,8.4-4.5c2.4-2.1,4.3-4.9,5.6-8.5c1.3-3.6,2-8.2,2-13.7V114z M301.8,66.9
		c-2.4-3.9-5.5-7.2-9.4-9.9c-3.9-2.7-8.1-4-12.8-4c-6.8,0-12.4,2.5-16.9,7.5c-4.4,5-6.6,12.4-6.6,22.3c0,5.6,0.6,10.2,1.8,14
		c1.2,3.8,2.8,6.9,4.9,9.3c2.1,2.4,4.5,4.1,7.2,5.2c2.7,1.1,5.6,1.6,8.6,1.6c6.8,0,12.4-2.5,16.7-7.6c4.3-5,6.4-12.1,6.4-21V66.9z"
		/>
	<path d="M365.4,129.8h-20.1V2.1h20.1V129.8z"/>
	<path d="M399.7,24.1c-4,0-7.2-1.2-9.4-3.6c-2.2-2.4-3.3-5.2-3.3-8.5c0-3.3,1.1-6.1,3.3-8.4c2.2-2.3,5.3-3.5,9.4-3.5
		c4,0,7.2,1.2,9.4,3.5c2.2,2.3,3.3,5.1,3.3,8.4c0,3.3-1.1,6.1-3.3,8.5C406.9,22.9,403.8,24.1,399.7,24.1z M409.8,129.8h-20.1V38.3
		h20.1V129.8z"/>
	<path d="M427.2,104.1c0-11,3.7-18.9,11-23.9c7.3-5,17.3-7.5,29.9-7.5H484v-3.1c0-6.1-1.6-10.6-4.9-13.5c-3.3-2.9-7.9-4.3-13.8-4.3
		c-5.3,0-10.2,0.6-14.8,1.9c-4.5,1.3-8.8,3-12.9,5.1l-4.5-14c3.7-2.3,8.5-4.3,14.4-6.1c5.9-1.8,12.4-2.7,19.5-2.7
		c12.4,0,21.5,3,27.5,9.1c5.9,6.1,8.9,14.4,8.9,25v59.5h-16.5l-2.8-13.6c-1.3,2-2.7,4-4.3,5.9c-1.6,1.9-3.5,3.6-5.7,5
		c-2.2,1.5-4.8,2.6-7.9,3.5s-6.6,1.3-10.8,1.3c-3.9,0-7.6-0.6-11-1.8c-3.4-1.2-6.4-3-9-5.4c-2.6-2.4-4.6-5.3-6.1-8.8
		C427.9,112.4,427.2,108.5,427.2,104.1z M484,86.4h-16.1c-6.9,0-12.3,1.5-16,4.5c-3.7,3-5.6,7.2-5.6,12.6c0,4,1.2,7.2,3.7,9.6
		s5.6,3.6,9.4,3.6c3.7,0,7-0.7,10-2.1c3-1.4,5.6-3.2,7.8-5.5c2.1-2.3,3.8-4.9,5-7.8c1.2-2.9,1.8-5.9,1.8-8.9V86.4z"/>
	<path class="st0" d="M545.8,52.9c1.1-1.9,2.4-3.9,3.9-5.9c1.5-2,3.1-3.8,5-5.4c1.9-1.6,4.1-2.9,6.5-3.9c2.5-1,5.2-1.5,8.2-1.5
		c3.4,0,6.2,0.5,8.3,1.5c2.1,1,3.7,1.8,4.5,2.5l-4.9,18.9c-2.9-2.5-6.8-3.8-11.6-3.8c-4.4,0-8.4,1-11.8,3.1
		c-3.5,2.1-6.2,5.2-8.2,9.4v61.9h-20.1V38.3h17L545.8,52.9z"/>
	<path class="st0" d="M586.3,83.9c0-6.6,0.9-12.8,2.7-18.6c1.8-5.8,4.6-10.9,8.2-15.2c3.7-4.4,8.3-7.8,13.8-10.2
		c5.6-2.5,12.1-3.7,19.7-3.7c7.6,0,14.1,1.2,19.7,3.7c5.6,2.5,10.2,5.9,13.9,10.2c3.7,4.4,6.5,9.4,8.2,15.2c1.8,5.8,2.7,12,2.7,18.6
		c0,6.7-0.9,12.9-2.7,18.8c-1.8,5.8-4.5,10.9-8.2,15.2c-3.7,4.4-8.4,7.8-13.9,10.2c-5.6,2.5-12.1,3.7-19.7,3.7
		c-7.6,0-14.1-1.2-19.7-3.7c-5.6-2.5-10.2-5.9-13.8-10.2c-3.7-4.4-6.4-9.4-8.2-15.2C587.2,96.9,586.3,90.6,586.3,83.9z M606.4,83.9
		c0,9.6,2,17.4,5.9,23.3c3.9,5.9,10.1,8.9,18.6,8.9c8.5,0,14.7-3,18.7-8.9c4-5.9,6-13.7,6-23.3c0-9.5-2-17.2-6-23.1
		c-4-5.9-10.2-8.9-18.7-8.9c-8.5,0-14.7,3-18.6,8.9C608.4,66.7,606.4,74.5,606.4,83.9z"/>
	<path class="st0" d="M717,116.3c6.4,0,11-1.1,13.7-3.2c2.7-2.1,4.1-4.9,4.1-8.1c0-4.2-1.9-7.3-5.6-9.5c-3.7-2.1-8.4-4-13.9-5.7
		c-4-1.1-7.8-2.5-11.3-4c-3.5-1.5-6.4-3.4-8.9-5.6c-2.5-2.2-4.4-4.8-5.8-7.8c-1.4-3-2.1-6.5-2.1-10.7c0-8,3.1-14.2,9.3-18.8
		c6.2-4.5,14.6-6.8,25.4-6.8c5.3,0,10.4,0.5,15.4,1.5c5,1,9.6,2.6,13.9,4.7l-4.5,15c-7.1-3.7-14.9-5.5-23.5-5.5
		c-5.8,0-10,0.9-12.6,2.7c-2.6,1.8-3.9,4.2-3.9,7.2c0,3.4,1.4,6,4.2,7.8c2.8,1.8,6.6,3.4,11.4,4.9c5.2,1.8,9.8,3.6,13.7,5.4
		c4,1.8,7.3,3.9,10,6.3c2.7,2.4,4.8,5.2,6.2,8.3c1.4,3.2,2.1,6.8,2.1,11c0,7.7-3,14-9,18.9c-6,4.9-15.1,7.4-27.4,7.4
		c-6.1,0-11.8-0.5-17.2-1.6c-5.4-1.1-10.1-2.7-14-4.8l4.5-15c3.4,1.8,7.4,3.2,11.8,4.3C707.6,115.8,712.2,116.3,717,116.3z"/>
	<path class="st0" d="M765,104.1c0-11,3.7-18.9,11-23.9c7.3-5,17.3-7.5,29.9-7.5h15.9v-3.1c0-6.1-1.6-10.6-4.9-13.5
		c-3.3-2.9-7.9-4.3-13.8-4.3c-5.3,0-10.2,0.6-14.8,1.9c-4.5,1.3-8.8,3-12.9,5.1l-4.5-14c3.7-2.3,8.5-4.3,14.4-6.1
		c5.9-1.8,12.4-2.7,19.5-2.7c12.4,0,21.5,3,27.5,9.1c5.9,6.1,8.9,14.4,8.9,25v59.5h-16.5l-2.8-13.6c-1.3,2-2.7,4-4.3,5.9
		c-1.6,1.9-3.5,3.6-5.7,5c-2.2,1.5-4.8,2.6-7.9,3.5s-6.6,1.3-10.8,1.3c-3.9,0-7.6-0.6-11-1.8c-3.4-1.2-6.4-3-9-5.4
		c-2.6-2.4-4.6-5.3-6.1-8.8C765.7,112.4,765,108.5,765,104.1z M821.8,86.4h-16.1c-6.9,0-12.3,1.5-16,4.5c-3.7,3-5.6,7.2-5.6,12.6
		c0,4,1.2,7.2,3.7,9.6s5.6,3.6,9.4,3.6c3.7,0,7-0.7,10-2.1c3-1.4,5.6-3.2,7.8-5.5c2.1-2.3,3.8-4.9,5-7.8c1.2-2.9,1.8-5.9,1.8-8.9
		V86.4z"/>
</g>
</svg>
